<svg xmlns="http://www.w3.org/2000/svg" viewBox="0 0 560 480" width="560" height="480">
  <defs>
    <linearGradient id="heroCard" x1="0" y1="0" x2="1" y2="1">
      <stop offset="0%" stop-color="#2563EB"/>
      <stop offset="100%" stop-color="#0EA5E9"/>
    </linearGradient>
    <filter id="softShadow" x="-20%" y="-20%" width="140%" height="140%">
      <feDropShadow dx="0" dy="18" stdDeviation="22" flood-color="#2563EB" flood-opacity="0.25"/>
    </filter>
  </defs>

  <circle cx="470" cy="90" r="70" fill="#2563EB" opacity="0.12"/>
  <circle cx="60" cy="410" r="90" fill="#0EA5E9" opacity="0.12"/>
  <rect x="30" y="60" width="60" height="60" rx="16" fill="#2563EB" opacity="0.15"/>

  <g filter="url(#softShadow)">
    <rect x="70" y="40" width="420" height="300" rx="20" fill="white"/>
    <rect x="70" y="40" width="420" height="42" rx="20" fill="#F1F5F9"/>
    <circle cx="96" cy="61" r="6" fill="#EF4444"/>
    <circle cx="116" cy="61" r="6" fill="#F59E0B"/>
    <circle cx="136" cy="61" r="6" fill="#22C55E"/>

    <rect x="96" y="104" width="220" height="20" rx="6" fill="#0F172A"/>
    <rect x="96" y="136" width="280" height="12" rx="6" fill="#94A3B8"/>
    <rect x="96" y="156" width="200" height="12" rx="6" fill="#CBD5E1"/>

    <rect x="96" y="190" width="120" height="36" rx="10" fill="url(#heroCard)"/>
    <rect x="228" y="190" width="120" height="36" rx="10" fill="#E2E8F0"/>

    <rect x="96" y="250" width="110" height="70" rx="12" fill="#EFF6FF"/>
    <rect x="216" y="250" width="110" height="70" rx="12" fill="#EFF6FF"/>
    <rect x="336" y="250" width="124" height="70" rx="12" fill="#EFF6FF"/>
  </g>

  <g filter="url(#softShadow)">
    <rect x="330" y="300" width="170" height="130" rx="18" fill="url(#heroCard)"/>
    <rect x="354" y="326" width="90" height="14" rx="7" fill="rgba(255,255,255,0.85)"/>
    <rect x="354" y="352" width="120" height="10" rx="5" fill="rgba(255,255,255,0.55)"/>
    <rect x="354" y="380" width="70" height="26" rx="8" fill="white"/>
  </g>
</svg>
